<svg width="40" height="40" viewBox="0 0 40 40" fill="none" xmlns="http://www.w3.org/2000/svg">
<rect width="40" height="40" rx="5" fill="#ECECEC"/>
<path d="M18.9989 10.9907C16.7898 10.9907 14.9989 12.7817 14.9989 14.9907H13.9989C11.7898 14.9907 9.9989 16.7817 9.9989 18.9907V24.9907C9.9989 27.1997 11.7898 28.9907 13.9989 28.9907H25.9989C28.208 28.9907 29.9989 27.1997 29.9989 24.9907V18.9907C29.9989 16.7817 28.208 14.9907 25.9989 14.9907H24.9989C24.9989 12.7817 23.208 10.9907 20.9989 10.9907H18.9989ZM18.9989 12.9907H20.9989C22.1035 12.9907 22.9989 13.8857 22.9989 14.9907H16.9989C16.9989 13.8857 17.8943 12.9907 18.9989 12.9907ZM13.9989 16.9907H25.9989C27.1035 16.9907 27.9989 17.8857 27.9989 18.9907V19.2717L22.6551 21.0527C21.2201 21.5317 18.7777 21.5317 17.3427 21.0527L11.9989 19.2717V18.9907C11.9989 17.8857 12.8943 16.9907 13.9989 16.9907ZM11.9989 21.3657L16.7177 22.9597C18.5632 23.5747 21.4346 23.5747 23.2801 22.9597L27.9989 21.3657V24.9907C27.9989 26.0957 27.1035 26.9907 25.9989 26.9907H13.9989C12.8943 26.9907 11.9989 26.0957 11.9989 24.9907V21.3657Z" fill="black"/>
</svg>
