<svg width="40" height="40" viewBox="0 0 40 40" fill="none" xmlns="http://www.w3.org/2000/svg">
<rect width="40" height="40" rx="5" fill="#ECECEC"/>
<path d="M19.9989 10.0142C16.6339 10.0142 13.6929 12.1922 12.5639 15.0492C11.1279 15.2222 9.9989 16.5292 9.9989 18.0141V22.0141C9.9989 23.6711 11.3419 25.0141 12.9989 25.0141C14.6559 25.0141 15.9989 23.6711 15.9989 22.0141V18.0141C15.9989 16.9531 15.3949 15.9761 14.5649 15.4431C15.4679 13.4831 17.5749 12.0142 19.9989 12.0142C22.4289 12.0142 24.4809 13.4222 25.4179 15.4502C24.5699 15.9912 23.9989 16.9681 23.9989 18.0141V22.0141C23.9989 22.6501 24.2459 23.3551 24.6169 23.8451C23.9899 24.5821 23.3299 25.0851 22.5579 25.4551C21.9959 24.5561 21.0449 24.0141 19.9989 24.0141C18.3419 24.0141 16.9989 25.3571 16.9989 27.0141C16.9989 28.6711 18.3419 30.0141 19.9989 30.0141C21.5089 30.0141 22.7499 28.8941 22.9599 27.4421C24.1309 27.0021 25.4099 26.1291 26.3079 24.9261C26.5469 24.9861 26.7419 25.0141 26.9989 25.0141C28.6559 25.0141 29.9989 23.6711 29.9989 22.0141V18.0141C29.9989 16.5142 28.8669 15.2632 27.4289 15.0412C26.2489 12.0962 23.3449 10.0142 19.9989 10.0142ZM12.9989 17.0141C13.5509 17.0141 13.9989 17.4621 13.9989 18.0141V22.0141C13.9989 22.5661 13.5509 23.0141 12.9989 23.0141C12.4469 23.0141 11.9989 22.5661 11.9989 22.0141V18.0141C11.9989 17.4621 12.4469 17.0141 12.9989 17.0141ZM26.9989 17.0141C27.5509 17.0141 27.9989 17.4621 27.9989 18.0141V22.0141C27.9989 22.5661 27.5509 23.0141 26.9989 23.0141C26.4469 23.0141 25.9989 22.5661 25.9989 22.0141V18.0141C25.9989 17.4621 26.4469 17.0141 26.9989 17.0141ZM19.9989 26.0141C20.5509 26.0141 20.9989 26.4621 20.9989 27.0141C20.9989 27.5661 20.5509 28.0141 19.9989 28.0141C19.4469 28.0141 18.9989 27.5661 18.9989 27.0141C18.9989 26.4621 19.4469 26.0141 19.9989 26.0141Z" fill="black"/>
</svg>
