<svg width="40" height="40" viewBox="0 0 40 40" fill="none" xmlns="http://www.w3.org/2000/svg">
<rect width="40" height="40" rx="5" fill="#ECECEC"/>
<path d="M24.5525 9.4429C23.7458 9.4179 22.9042 9.70692 22.2602 10.3509L21.1247 11.4939C18.9557 11.3659 17.1594 11.9349 15.74 12.9429C14.9527 13.5019 14.4235 14.0579 14.1462 14.4739C14.0827 14.5699 14.049 14.6759 14.0212 14.7869L11.0212 26.7869C10.8382 27.5189 11.5076 28.1879 12.24 28.0049L24.24 25.0049C24.3512 24.9779 24.4571 24.9439 24.5525 24.8799C24.9674 24.6039 25.5262 24.0729 26.0837 23.2869C27.0926 21.8649 27.6662 20.0729 27.5255 17.9119L28.7123 16.7319C30.0004 15.4439 29.7505 13.3839 28.6691 12.3019L26.6857 10.3299C26.145 9.78992 25.3592 9.4679 24.5525 9.4429ZM24.5212 11.4429C24.8179 11.4529 25.1386 11.5809 25.3166 11.7589L27.2712 13.7549C27.6272 14.1109 27.7433 14.8619 27.3059 15.2999L26.49 16.1299C25.3996 15.0399 23.8959 13.5149 22.9116 12.5299L23.7233 11.7289C23.942 11.5099 24.2246 11.4339 24.5212 11.4429ZM20.9996 13.4899C21.8257 14.3099 24.6697 17.1359 25.527 17.9869C25.6442 19.6679 25.2326 21.0389 24.4587 22.1299C24.2217 22.4649 23.9583 22.7459 23.7087 22.9739C23.6124 23.0619 23.573 23.0899 23.5212 23.1299L15.2597 25.1849L19.472 20.9759C19.6189 21.0109 19.8326 21.0369 19.99 21.0369C21.0946 21.0369 21.99 20.1409 21.99 19.0369C21.99 17.9319 21.0946 17.0369 19.99 17.0369C18.8854 17.0369 17.99 17.9319 17.99 19.0369C17.99 19.1939 18.0226 19.4029 18.057 19.5499L13.8322 23.7909L15.8962 15.5049C15.9365 15.4529 15.964 15.4149 16.0525 15.3179C16.2815 15.0669 16.5611 14.8059 16.8962 14.5679C17.9778 13.7999 19.341 13.3849 20.9996 13.4899Z" fill="black"/>
</svg>
