<svg width="40" height="40" viewBox="0 0 40 40" fill="none" xmlns="http://www.w3.org/2000/svg">
<rect width="40" height="40" rx="5" fill="#ECECEC"/>
<path d="M13.4597 9.92969C12.0897 9.92969 10.9907 11.0287 10.9907 12.3987V15.4607C10.9907 16.8307 12.0897 17.9297 13.4597 17.9297H16.5217C17.8917 17.9297 18.9907 16.8307 18.9907 15.4607V12.3987C18.9907 11.0287 17.8917 9.92969 16.5217 9.92969H13.4597ZM22.9907 9.92969C21.8857 9.92969 20.9907 10.8247 20.9907 11.9297V15.9297C20.9907 17.0347 21.8857 17.9297 22.9907 17.9297H26.9907C28.0957 17.9297 28.9907 17.0347 28.9907 15.9297V11.9297C28.9907 10.8247 28.0957 9.92969 26.9907 9.92969H22.9907ZM22.9907 11.9297H26.9907V15.9297H22.9907V11.9297ZM16.1467 12.5857C16.3427 12.3897 16.6387 12.3897 16.8347 12.5857C17.0307 12.7827 17.0307 13.0777 16.8347 13.2737L14.8347 15.2737C14.6387 15.4697 14.3427 15.4697 14.1467 15.2737L13.1467 14.2737C12.9507 14.0767 12.9507 13.7817 13.1467 13.5857C13.3427 13.3897 13.6387 13.3897 13.8347 13.5857L14.4907 14.2417L16.1467 12.5857ZM12.9907 19.9297C11.8857 19.9297 10.9907 20.8247 10.9907 21.9297V25.9297C10.9907 27.0347 11.8857 27.9297 12.9907 27.9297H16.9907C18.0957 27.9297 18.9907 27.0347 18.9907 25.9297V21.9297C18.9907 20.8247 18.0957 19.9297 16.9907 19.9297H12.9907ZM22.9907 19.9297C21.8857 19.9297 20.9907 20.8247 20.9907 21.9297V25.9297C20.9907 27.0347 21.8857 27.9297 22.9907 27.9297H26.9907C28.0957 27.9297 28.9907 27.0347 28.9907 25.9297V21.9297C28.9907 20.8247 28.0957 19.9297 26.9907 19.9297H22.9907ZM12.9907 21.9297H16.9907V25.9297H12.9907V21.9297ZM22.9907 21.9297H26.9907V25.9297H22.9907V21.9297Z" fill="black"/>
</svg>
