<svg width="40" height="40" viewBox="0 0 40 40" fill="none" xmlns="http://www.w3.org/2000/svg">
<rect width="40" height="40" rx="20" fill="#F6F6F7"/>
<path d="M16.008 27V25.29C16.29 24.846 16.614 24.381 16.98 23.895C17.352 23.403 17.733 22.923 18.123 22.455C18.513 21.981 18.894 21.534 19.266 21.114C19.638 20.694 19.965 20.331 20.247 20.025C20.571 19.677 20.847 19.383 21.075 19.143C21.303 18.903 21.486 18.681 21.624 18.477C21.762 18.273 21.861 18.069 21.921 17.865C21.987 17.655 22.02 17.409 22.02 17.127C22.02 16.905 21.981 16.686 21.903 16.47C21.831 16.248 21.726 16.05 21.588 15.876C21.45 15.702 21.282 15.564 21.084 15.462C20.886 15.354 20.667 15.3 20.427 15.3C19.935 15.3 19.503 15.465 19.131 15.795C18.759 16.125 18.429 16.572 18.141 17.136L16.044 16.353C16.218 15.897 16.44 15.483 16.71 15.111C16.986 14.739 17.313 14.424 17.691 14.166C18.069 13.902 18.495 13.701 18.969 13.563C19.449 13.419 19.98 13.347 20.562 13.347C21.246 13.347 21.855 13.461 22.389 13.689C22.923 13.911 23.373 14.205 23.739 14.571C24.111 14.937 24.393 15.354 24.585 15.822C24.777 16.284 24.873 16.752 24.873 17.226C24.873 17.646 24.807 18.033 24.675 18.387C24.543 18.741 24.366 19.083 24.144 19.413C23.922 19.737 23.67 20.061 23.388 20.385C23.106 20.709 22.815 21.051 22.515 21.411C22.215 21.771 21.903 22.137 21.579 22.509C21.261 22.881 20.955 23.235 20.661 23.571C20.373 23.907 20.109 24.216 19.869 24.498C19.635 24.78 19.452 25.014 19.32 25.2H25.098V27H16.008Z" fill="black"/>
</svg>
