<svg width="40" height="40" viewBox="0 0 40 40" fill="none" xmlns="http://www.w3.org/2000/svg">
<rect width="40" height="40" rx="5" fill="#ECECEC"/>
<path d="M13.9991 10.9907C13.9501 10.9907 13.7281 11.0277 13.6551 11.0537C13.3951 11.1447 13.1991 11.3207 13.0931 11.5537L10.1841 17.3857C10.1841 17.3857 10.0061 17.6267 9.99907 17.9937C9.99207 18.3607 10.2621 18.6537 10.2621 18.6537L19.2181 29.6237C19.6181 30.1127 20.3801 30.1127 20.7801 29.6237C21.0591 29.2827 29.7711 18.6047 29.7711 18.6047C29.7711 18.6047 29.9931 18.3227 29.9991 17.9937C30.0061 17.6647 29.8311 17.4317 29.8311 17.4317L26.9051 11.5537C26.7991 11.3207 26.6031 11.1447 26.3431 11.0537C26.2701 11.0277 26.0491 10.9907 25.9991 10.9907H13.9991ZM15.4051 12.9917H24.5931L23.1871 16.9937H16.8121L15.4051 12.9917ZM13.8431 14.5547L14.7181 16.9937H12.6241L13.8431 14.5547ZM26.1551 14.5547L27.3741 16.9937H25.2801L26.1551 14.5547ZM13.1241 18.9937H15.4051L17.1551 23.9337L13.1241 18.9937ZM17.5301 18.9937H22.4681L19.9991 25.9977L17.5301 18.9937ZM24.5931 18.9937H26.8741C25.9161 20.1647 24.5261 21.8797 22.8431 23.9337L24.5931 18.9937Z" fill="black"/>
</svg>
