<svg width="40" height="40" viewBox="0 0 40 40" fill="none" xmlns="http://www.w3.org/2000/svg">
<rect width="40" height="40" rx="5" fill="#ECECEC"/>
<path d="M23.4989 10.9297C21.0136 10.9297 18.9989 12.9447 18.9989 15.4297C18.9989 17.9147 21.0136 19.9297 23.4989 19.9297C25.9842 19.9297 27.9989 17.9147 27.9989 15.4297C27.9989 12.9447 25.9842 10.9297 23.4989 10.9297ZM15.9989 11.9297C13.7898 11.9297 11.9989 13.7207 11.9989 15.9297C11.9989 18.1387 13.7898 19.9297 15.9989 19.9297C16.8283 19.9297 17.6139 19.6767 18.2801 19.2107C18.7328 18.8947 18.8465 18.2577 18.5301 17.8047C18.2137 17.3517 17.6078 17.2697 17.1551 17.5857C16.8222 17.8187 16.4151 17.9297 15.9989 17.9297C14.8943 17.9297 13.9989 17.0347 13.9989 15.9297C13.9989 14.8247 14.8943 13.9297 15.9989 13.9297C16.3251 13.9297 16.6235 14.0017 16.9051 14.1487C17.3951 14.4037 18.0253 14.2317 18.2801 13.7417C18.535 13.2527 18.3326 12.6217 17.8427 12.3677C17.2776 12.0737 16.6483 11.9297 15.9989 11.9297ZM23.4989 12.9297C24.8796 12.9297 25.9989 14.0487 25.9989 15.4297C25.9989 16.8107 24.8796 17.9297 23.4989 17.9297C22.1182 17.9297 20.9989 16.8107 20.9989 15.4297C20.9989 14.0487 22.1182 12.9297 23.4989 12.9297ZM13.0614 21.2737C11.2273 22.0307 9.9989 23.8857 9.9989 25.9297V27.9297C9.9989 28.4817 10.4466 28.9297 10.9989 28.9297H14.9989C15.5512 28.9297 15.9989 28.4817 15.9989 27.9297C15.9989 27.3777 15.5512 26.9297 14.9989 26.9297H11.9989V25.9297C11.9989 24.8057 12.6656 23.7737 13.4319 23.3197C14.1526 23.6237 14.915 23.8537 15.593 23.9107C16.1434 23.9577 16.6397 23.5427 16.6864 22.9917C16.7331 22.4417 16.3354 21.9757 15.7851 21.9287C15.3461 21.8917 14.8663 21.7597 14.3114 21.5237C14.1774 21.4667 14.0996 21.4217 13.8427 21.3047C13.5908 21.1897 13.3172 21.1677 13.0614 21.2737ZM20.0614 21.2737C18.2273 22.0307 16.9989 23.8857 16.9989 25.9297V27.9297C16.9989 28.4817 17.4466 28.9297 17.9989 28.9297H28.9989C29.5512 28.9297 29.9989 28.4817 29.9989 27.9297V25.9297C29.9989 23.9337 28.7637 22.1237 26.9364 21.3357C26.6792 21.2247 26.3795 21.2217 26.1239 21.3357C25.2391 21.7327 24.3771 21.9297 23.4989 21.9297C22.6237 21.9297 21.7587 21.7217 20.8427 21.3047C20.5908 21.1897 20.3172 21.1677 20.0614 21.2737ZM20.4459 23.3197C21.3907 23.6777 22.5298 23.9297 23.4989 23.9297C24.4604 23.9297 25.5524 23.6947 26.4781 23.3527C27.3807 23.8667 27.9989 24.8287 27.9989 25.9297V26.9297H18.9989V25.9297C18.9989 24.7647 19.6548 23.7827 20.4459 23.3197Z" fill="black"/>
</svg>
