<svg width="40" height="40" viewBox="0 0 40 40" fill="none" xmlns="http://www.w3.org/2000/svg">
<rect width="40" height="40" rx="5" fill="#ECECEC"/>
<path d="M17.0006 9.95312C16.559 9.95312 16.1587 10.2491 16.0318 10.6721L13.0318 20.6721C12.8394 21.3131 13.3307 21.9531 14.0006 21.9531H17.8756L17.0006 28.8281C16.8697 29.8751 18.2586 30.3931 18.8446 29.5161L26.8446 17.5161C27.2876 16.8511 26.7996 15.9531 26.0006 15.9531H21.3756L22.9386 11.2661C23.1536 10.6181 22.6836 9.95312 22.0006 9.95312C21.3756 9.95312 17.6256 9.95312 17.0006 9.95312ZM17.7506 11.9531C18.5686 11.9531 19.5496 11.9531 20.6256 11.9531L19.0626 16.6411C18.8476 17.2881 19.3176 17.9531 20.0006 17.9531H24.1256L19.5316 24.8281L20.0006 21.0781C20.0756 20.4811 19.6016 19.9531 19.0006 19.9531H15.3444L17.7506 11.9531Z" fill="black"/>
</svg>
